<svg id="_x33_0" enable-background="new 0 0 64 64" height="512" viewBox="0 0 64 64" width="512" xmlns="http://www.w3.org/2000/svg"><path d="m18.409 39.995 5.596 5.596 1.582-1.59-5.588-5.588z"/><path d="m25.926 35.488-3.012 3.012 2.586 2.586 3.012-3.012c-.935-.786-1.8-1.651-2.586-2.586z"/><path d="m4.17 54.173c-1.558 1.558-1.558 4.096.001 5.656s4.098 1.56 5.657 0l9.772-9.814-5.614-5.615z"/><path d="m15.403 42.989 5.608 5.608 1.583-1.589-5.602-5.602z"/><path d="m42 3c-10.477 0-19 8.523-19 19 0 2.537.509 4.956 1.416 7.17l1.463-1.463c.53-.53 1.146-.943 1.815-1.231-.452-1.444-.694-2.943-.694-4.476 0-8.271 6.729-15 15-15s15 6.729 15 15-6.729 15-15 15c-1.488 0-2.945-.226-4.35-.652-.196.549-.465 1.072-.816 1.539l-1.43 1.907c2.058.767 4.274 1.206 6.596 1.206 10.477 0 19-8.523 19-19s-8.523-19-19-19z"/><path d="m42 35c7.168 0 13-5.832 13-13s-5.832-13-13-13-13 5.832-13 13c0 1.378.226 2.724.646 4.017.118-.007.235-.017.354-.017 1.557 0 3.021.606 4.121 1.707l2.172 2.172c1.101 1.1 1.707 2.564 1.707 4.121v.359c1.288.417 2.628.641 4 .641zm-5-8v-2h2v2h6v-4h-6c-1.103 0-2-.897-2-2v-4c0-1.103.897-2 2-2h2v-2h2v2h2c1.103 0 2 .897 2 2v2h-2v-2h-6v4h6c1.103 0 2 .897 2 2v4c0 1.103-.897 2-2 2h-2v2h-2v-2h-2c-1.103 0-2-.897-2-2z"/><path d="m36 34c0-1.022-.398-1.984-1.121-2.707l-2.172-2.172c-1.446-1.446-3.968-1.446-5.414 0l-1.971 1.971c1.858 3.394 4.729 6.146 8.195 7.885l1.717-2.289c.494-.659.766-1.475.766-2.297zm-5.293-2.293c-.195.195-.451.293-.707.293s-.512-.098-.707-.293c-.391-.391-.391-1.024 0-1.414.195-.195.451-.293.707-.293s.512.098.707.293c.391.39.391 1.024 0 1.414zm3 3c-.195.195-.451.293-.707.293s-.512-.098-.707-.293c-.391-.391-.391-1.024 0-1.414.195-.195.451-.293.707-.293s.512.098.707.293c.391.39.391 1.024 0 1.414z"/></svg>