<?xml version="1.0" encoding="iso-8859-1"?>
<!-- Generator: Adobe Illustrator 19.0.0, SVG Export Plug-In . SVG Version: 6.00 Build 0)  -->
<svg version="1.1" id="Capa_1" xmlns="http://www.w3.org/2000/svg" xmlns:xlink="http://www.w3.org/1999/xlink" x="0px" y="0px"
	 viewBox="0 0 491.52 491.52" style="enable-background:new 0 0 491.52 491.52;" xml:space="preserve">
<circle style="fill:#45B39C;" cx="245.76" cy="245.76" r="245.76"/>
<path style="fill:#DC8744;" d="M338.248,138.292H153.272c-5.496,0-9.951,4.455-9.951,9.951v228.365c0,5.496,4.455,9.951,9.951,9.951
	h184.975c5.496,0,9.951-4.455,9.951-9.951V148.243C348.199,142.748,343.743,138.292,338.248,138.292z"/>
<rect x="160" y="156.774" style="fill:#D5D6DB;" width="171.535" height="214.912"/>
<rect x="160" y="146.365" style="fill:#EBF0F3;" width="171.535" height="220.365"/>
<rect x="182.999" y="146.365" style="fill:#3A556A;" width="125.517" height="11.704"/>
<path style="fill:#64798A;" d="M302.557,123.639h-33.18c-2.506,0-4.583-1.77-5.178-4.205c-2.033-8.307-9.505-14.474-18.44-14.474
	c-8.934,0-16.407,6.168-18.439,14.474c-0.595,2.434-2.673,4.205-5.178,4.205h-33.181c-3.292,0-5.961,2.669-5.961,5.961v16.767
	h125.518v-16.766C308.519,126.307,305.85,123.639,302.557,123.639z M245.759,135.013c-5.847,0-10.588-4.74-10.588-10.588
	c0-5.848,4.741-10.588,10.588-10.588c5.848,0,10.588,4.74,10.588,10.588C256.348,130.274,251.607,135.013,245.759,135.013z"/>
<path style="fill:#44C4A1;" d="M201.413,177.93c-16.02,0-29.008,12.987-29.008,29.008c0,7.72,3.036,14.716,7.953,19.914
	l21.055-19.914V177.93z"/>
<path style="fill:#FCD462;" d="M233.867,203.492c0-16.02-12.987-29.008-29.008-29.008v29.008H233.867z"/>
<path style="fill:#27A2DB;" d="M181.066,230.299c5.288,5.588,12.754,9.095,21.056,9.095c8.01,0,15.262-3.248,20.511-8.497
	l-20.511-20.512L181.066,230.299z"/>
<path style="fill:#E56353;" d="M204.859,207.647l20.512,20.512c5.25-5.249,8.496-12.502,8.496-20.512H204.859z"/>
<path style="fill:#44C4A1;" d="M268.894,169.967h-8.257c-0.956,0-1.732,0.775-1.732,1.731v8.258c0,0.956,0.775,1.732,1.732,1.732
	h8.257c0.956,0,1.732-0.775,1.732-1.732v-8.258C270.626,170.742,269.851,169.967,268.894,169.967z"/>
<rect x="278.374" y="173.266" style="fill:#D5D6DB;" width="42.885" height="5.12"/>
<path style="fill:#FCD462;" d="M268.894,193.584h-8.257c-0.956,0-1.732,0.775-1.732,1.731v8.258c0,0.956,0.775,1.732,1.732,1.732
	h8.257c0.956,0,1.732-0.775,1.732-1.732v-8.258C270.626,194.359,269.851,193.584,268.894,193.584z"/>
<rect x="278.374" y="196.884" style="fill:#D5D6DB;" width="42.885" height="5.12"/>
<path style="fill:#E56353;" d="M268.894,217.201h-8.257c-0.956,0-1.732,0.775-1.732,1.732v8.257c0,0.956,0.775,1.732,1.732,1.732
	h8.257c0.956,0,1.732-0.775,1.732-1.732v-8.257C270.626,217.976,269.851,217.201,268.894,217.201z"/>
<rect x="278.374" y="220.518" style="fill:#D5D6DB;" width="42.885" height="5.12"/>
<path style="fill:#27A2DB;" d="M268.894,240.818h-8.257c-0.956,0-1.732,0.775-1.732,1.732v8.257c0,0.956,0.775,1.732,1.732,1.732
	h8.257c0.956,0,1.732-0.775,1.732-1.732v-8.257C270.626,241.593,269.851,240.818,268.894,240.818z"/>
<g>
	<rect x="278.374" y="244.122" style="fill:#D5D6DB;" width="42.885" height="5.12"/>
	<rect x="169.933" y="267.725" style="fill:#D5D6DB;" width="151.296" height="5.12"/>
	<rect x="169.933" y="288.051" style="fill:#D5D6DB;" width="111.606" height="5.12"/>
	<rect x="169.933" y="308.378" style="fill:#D5D6DB;" width="151.296" height="5.12"/>
	<rect x="169.933" y="328.704" style="fill:#D5D6DB;" width="151.296" height="5.12"/>
	<rect x="169.933" y="349.03" style="fill:#D5D6DB;" width="64.993" height="5.12"/>
</g>
<g>
</g>
<g>
</g>
<g>
</g>
<g>
</g>
<g>
</g>
<g>
</g>
<g>
</g>
<g>
</g>
<g>
</g>
<g>
</g>
<g>
</g>
<g>
</g>
<g>
</g>
<g>
</g>
<g>
</g>
</svg>
