<svg height="512pt" viewBox="0 -30 512 511" width="512pt" xmlns="http://www.w3.org/2000/svg"><path d="m0 452.453125h512v-301.855469h-512zm300.78125-222.035156 23.574219-18.550781 70.550781 89.65625-70.550781 89.65625-23.574219-18.550782 55.949219-71.105468zm-59.78125-18.949219h30v180.109375h-30zm-53.355469.398438 23.574219 18.550781-55.949219 71.105469 55.949219 71.105468-23.574219 18.550782-70.550781-89.65625zm0 0"/><path d="m0 .5v120.097656h512v-120.097656zm90.058594 75.046875h-30.023438v-30h30.023438zm60.050781 0h-30.023437v-30h30.023437zm60.046875 0h-30.023438v-30h30.023438zm0 0"/></svg>