<?xml version="1.0" encoding="iso-8859-1"?>
<!-- Generator: Adobe Illustrator 19.0.0, SVG Export Plug-In . SVG Version: 6.00 Build 0)  -->
<svg version="1.1" id="Capa_1" xmlns="http://www.w3.org/2000/svg" xmlns:xlink="http://www.w3.org/1999/xlink" x="0px" y="0px"
	 viewBox="0 0 491.52 491.52" style="enable-background:new 0 0 491.52 491.52;" xml:space="preserve">
<circle style="fill:#334D5C;" cx="245.76" cy="245.76" r="245.76"/>
<polygon style="fill:#E1E6E9;" points="172.489,115.2 104.96,182.729 104.96,386.56 309.07,386.56 309.07,115.2 "/>
<polygon style="fill:#EBF0F3;" points="172.489,104.96 104.96,172.489 104.96,376.32 309.07,376.32 309.07,104.96 "/>
<g>
	<polygon style="fill:#D5D6DB;" points="172.489,172.489 172.489,104.96 104.96,172.489 	"/>
	<rect x="190.822" y="136.166" style="fill:#D5D6DB;" width="100.413" height="5.12"/>
	<rect x="190.822" y="162.698" style="fill:#D5D6DB;" width="100.413" height="5.12"/>
	<rect x="122.803" y="189.225" style="fill:#D5D6DB;" width="168.422" height="5.12"/>
	<rect x="122.803" y="215.757" style="fill:#D5D6DB;" width="168.422" height="5.12"/>
	<rect x="122.803" y="242.278" style="fill:#D5D6DB;" width="168.422" height="5.12"/>
	<rect x="122.803" y="268.8" style="fill:#D5D6DB;" width="168.422" height="5.12"/>
	<rect x="122.803" y="295.352" style="fill:#D5D6DB;" width="168.422" height="5.12"/>
	<rect x="122.803" y="321.884" style="fill:#D5D6DB;" width="168.422" height="5.12"/>
	<rect x="122.803" y="348.416" style="fill:#D5D6DB;" width="168.422" height="5.12"/>
</g>
<rect x="287.052" y="110.305" transform="matrix(-0.7838 -0.621 0.621 -0.7838 398.0661 537.8412)" style="fill:#E56353;" width="11.208" height="178.648"/>
<rect x="295.838" y="117.248" transform="matrix(-0.7838 -0.621 0.621 -0.7838 409.4171 555.6861)" style="fill:#D15241;" width="11.208" height="178.647"/>
<rect x="304.631" y="124.222" transform="matrix(-0.7838 -0.621 0.621 -0.7838 420.7939 573.5801)" style="fill:#CE412D;" width="11.208" height="178.647"/>
<rect x="341.332" y="133.039" transform="matrix(-0.7838 -0.621 0.621 -0.7838 555.0026 463.2588)" style="fill:#44C4A1;" width="33.618" height="3.963"/>
<path style="fill:#64798A;" d="M364.397,105.722l6.021,4.771l-15.438,19.484l-8.783-6.959l13.249-16.722
	C360.655,104.77,362.872,104.514,364.397,105.722z"/>
<rect x="354.668" y="118.117" transform="matrix(-0.621 0.7838 -0.7838 -0.621 692.0412 -87.1775)" style="fill:#3A556A;" width="24.858" height="11.208"/>
<path style="fill:#2F4859;" d="M379.203,117.453l6.022,4.771c1.526,1.209,1.782,3.425,0.573,4.951l-13.249,16.722l-8.784-6.959
	L379.203,117.453z"/>
<path style="fill:#FCD462;" d="M259.147,287.024l-19.86,8.487c-0.229-2.363-1.368-4.636-3.377-6.228
	c-2.009-1.591-4.481-2.179-6.835-1.862l3.721-21.275L259.147,287.024z"/>
<path style="fill:#64798A;" d="M235.91,289.283c2.009,1.592,3.147,3.865,3.377,6.228l-9.587,4.097
	c-1.281,0.548-2.66-0.544-2.42-1.917l1.796-10.27C231.43,287.103,233.902,287.691,235.91,289.283z"/>
<g>
</g>
<g>
</g>
<g>
</g>
<g>
</g>
<g>
</g>
<g>
</g>
<g>
</g>
<g>
</g>
<g>
</g>
<g>
</g>
<g>
</g>
<g>
</g>
<g>
</g>
<g>
</g>
<g>
</g>
</svg>
