<svg height="512" viewBox="0 0 192 192" width="512" xmlns="http://www.w3.org/2000/svg"><g id="_06-speed" data-name="06-speed"><g id="Glyph"><circle cx="96" cy="104" r="8"/><path d="m96 0a96.014 96.014 0 0 0 -80.47 148.369 8 8 0 0 0 6.7 3.631h147.539a8 8 0 0 0 6.7-3.631 96.014 96.014 0 0 0 -80.469-148.369zm20.784 116a24 24 0 0 1 -41.568-24c6.618-11.462 44.784-29.567 44.784-29.567s3.4 42.108-3.216 53.567zm56.867 12h-8.74a75.526 75.526 0 0 0 6.664-24h-11.575v-16h11.576a75.355 75.355 0 0 0 -6.144-22.849l-10.006 5.777-8-13.856 9.988-5.767a76.626 76.626 0 0 0 -16.714-16.719l-5.767 9.988-13.856-8 5.777-10.006a75.355 75.355 0 0 0 -22.854-6.144v11.576h-16v-11.576a75.355 75.355 0 0 0 -22.849 6.144l5.777 10.006-13.856 8-5.767-9.988a76.626 76.626 0 0 0 -16.719 16.719l9.988 5.767-8 13.856-10.006-5.777a75.355 75.355 0 0 0 -6.144 22.849h11.576v16h-11.575a75.526 75.526 0 0 0 6.664 24h-8.74a84 84 0 1 1 155.3 0z"/></g></g></svg>