<?xml version="1.0" encoding="iso-8859-1"?>
<!-- Generator: Adobe Illustrator 19.0.0, SVG Export Plug-In . SVG Version: 6.00 Build 0)  -->
<svg version="1.1" id="Capa_1" xmlns="http://www.w3.org/2000/svg" xmlns:xlink="http://www.w3.org/1999/xlink" x="0px" y="0px"
	 viewBox="0 0 491.52 491.52" style="enable-background:new 0 0 491.52 491.52;" xml:space="preserve">
<circle style="fill:#EFC84A;" cx="245.76" cy="245.76" r="245.76"/>
<path style="fill:#3A556A;" d="M379.717,104.96H111.804c-3.78,0-6.844,3.064-6.844,6.843v40.031h281.6v-40.031
	C386.56,108.024,383.496,104.96,379.717,104.96z"/>
<circle style="fill:#FCD462;" cx="314.266" cy="128.41" r="7.731"/>
<circle style="fill:#44C4A1;" cx="341.837" cy="128.41" r="7.731"/>
<circle style="fill:#E56353;" cx="369.408" cy="128.41" r="7.731"/>
<path style="fill:#EBF0F3;" d="M166.487,146.714h47.71l-2.808-8.304c-0.462-1.365-1.742-2.284-3.184-2.284h-45.422
	c0.099,0.226,0.259,0.411,0.339,0.648L166.487,146.714z"/>
<path style="fill:#64798A;" d="M386.56,151.834H165.224c-1.441,0-2.721-0.919-3.184-2.284l-3.766-11.14
	c-0.461-1.365-1.742-2.284-3.183-2.284h-34.81c-1.441,0-2.723,0.919-3.184,2.284l-3.766,11.14c-0.463,1.365-1.743,2.284-3.184,2.284
	h-5.186v23.453h281.6V151.834z"/>
<path style="fill:#EBF0F3;" d="M104.96,379.717c0,3.779,3.064,6.843,6.842,6.843h267.915c3.779,0,6.842-3.064,6.842-6.843v-204.43
	h-281.6V379.717z"/>
<g>
	<path style="fill:#FFFFFF;" d="M104.96,369.477c0,3.779,3.064,6.843,6.842,6.843h267.915c3.779,0,6.842-3.064,6.842-6.843v-194.19
		h-281.6V369.477z"/>
	<path style="fill:#FFFFFF;" d="M156.125,166.633h-30.7c-1.695,0-3.07-1.375-3.07-3.073c0-1.698,1.375-3.073,3.07-3.073h30.7
		c1.695,0,3.07,1.375,3.07,3.073C159.195,165.258,157.82,166.633,156.125,166.633z"/>
	<path style="fill:#FFFFFF;" d="M208.62,166.633h-30.7c-1.695,0-3.07-1.375-3.07-3.073c0-1.698,1.375-3.073,3.07-3.073h30.7
		c1.695,0,3.07,1.375,3.07,3.073C211.69,165.258,210.315,166.633,208.62,166.633z"/>
	<path style="fill:#FFFFFF;" d="M261.11,166.633h-30.695c-1.695,0-3.07-1.375-3.07-3.073c0-1.698,1.375-3.073,3.07-3.073h30.695
		c1.695,0,3.07,1.375,3.07,3.073C264.18,165.258,262.805,166.633,261.11,166.633z"/>
	<path style="fill:#FFFFFF;" d="M313.605,166.633h-30.7c-1.695,0-3.07-1.375-3.07-3.073c0-1.698,1.375-3.073,3.07-3.073h30.7
		c1.695,0,3.07,1.375,3.07,3.073C316.675,165.258,315.3,166.633,313.605,166.633z"/>
	<path style="fill:#FFFFFF;" d="M366.095,166.633H335.4c-1.695,0-3.07-1.375-3.07-3.073c0-1.698,1.375-3.073,3.07-3.073h30.695
		c1.695,0,3.07,1.375,3.07,3.073C369.165,165.258,367.79,166.633,366.095,166.633z"/>
</g>
<rect x="153.513" y="204.503" style="fill:#64798A;" width="7.055" height="142.602"/>
<circle style="fill:#FCD462;" cx="157.041" cy="305.992" r="15.411"/>
<path style="fill:#F6C358;" d="M166.754,294.125c-2.06,10.428-8.642,19.805-19.795,23.432c2.707,2.363,6.206,3.842,10.081,3.842
	c8.509,0,15.407-6.897,15.407-15.407C172.446,301.188,170.201,296.951,166.754,294.125z"/>
<rect x="197.873" y="204.503" style="fill:#64798A;" width="7.055" height="142.602"/>
<circle style="fill:#E56353;" cx="201.421" cy="235.156" r="15.411"/>
<path style="fill:#D15241;" d="M211.114,223.29c-2.06,10.427-8.642,19.805-19.795,23.432c2.707,2.363,6.206,3.841,10.081,3.841
	c8.508,0,15.407-6.897,15.407-15.407C216.806,230.353,214.561,226.116,211.114,223.29z"/>
<rect x="242.227" y="204.503" style="fill:#64798A;" width="7.055" height="142.602"/>
<circle style="fill:#EBF0F3;" cx="245.76" cy="275.948" r="15.411"/>
<path style="fill:#E1E6E9;" d="M255.475,264.082c-2.06,10.427-8.642,19.805-19.795,23.432c2.707,2.363,6.206,3.841,10.081,3.841
	c8.508,0,15.406-6.897,15.406-15.407C261.166,271.144,258.921,266.908,255.475,264.082z"/>
<rect x="286.592" y="204.503" style="fill:#64798A;" width="7.055" height="142.602"/>
<circle style="fill:#27A2DB;" cx="290.12" cy="322.714" r="15.411"/>
<path style="fill:#2D93BA;" d="M299.835,310.86c-2.06,10.428-8.642,19.805-19.795,23.432c2.707,2.363,6.206,3.842,10.081,3.842
	c8.508,0,15.407-6.897,15.407-15.407C305.527,317.923,303.281,313.687,299.835,310.86z"/>
<rect x="330.957" y="204.503" style="fill:#64798A;" width="7.055" height="142.602"/>
<circle style="fill:#44C4A1;" cx="334.49" cy="246.528" r="15.411"/>
<path style="fill:#3EA69B;" d="M344.195,234.653c-2.06,10.428-8.642,19.805-19.795,23.433c2.707,2.362,6.206,3.841,10.081,3.841
	c8.509,0,15.407-6.897,15.407-15.407C349.887,241.716,347.641,237.479,344.195,234.653z"/>
<g>
</g>
<g>
</g>
<g>
</g>
<g>
</g>
<g>
</g>
<g>
</g>
<g>
</g>
<g>
</g>
<g>
</g>
<g>
</g>
<g>
</g>
<g>
</g>
<g>
</g>
<g>
</g>
<g>
</g>
</svg>
